PathFileType	4	(X/Y/Z)	TVC_39_BWA_06_walk_RCNL2025.trc
DataRate	CameraRate	NumFrames	NumMarkers	Units	OrigDataRate	OrigDataStartFrame	OrigNumFrames
100	100	6	27	mm	100	1	1118
Frame#	Time	R_Shoulder			L_Shoulder			C7			J_Notch			R_Elbow			L_Elbow			R_Wrist			L_Wrist			R_Asis			L_Asis			R_Psis			L_Psis			Sacral			Thoracic			Sternum			R_Thigh_Lateral			R_Knee_Lateral			R_Shank_Lateral			R_Ankle_Lateral			R_Heel			R_Toe			L_Thigh_Lateral			L_Knee_Lateral			L_Shank_Lateral			L_Ankle_Lateral			L_Heel			L_Toe		
		X1	Y1	Z1	X2	Y2	Z2	X3	Y3	Z3	X4	Y4	Z4	X5	Y5	Z5	X6	Y6	Z6	X7	Y7	Z7	X8	Y8	Z8	X9	Y9	Z9	X10	Y10	Z10	X11	Y11	Z11	X12	Y12	Z12	X13	Y13	Z13	X14	Y14	Z14	X15	Y15	Z15	X16	Y16	Z16	X17	Y17	Z17	X18	Y18	Z18	X19	Y19	Z19	X20	Y20	Z20	X21	Y21	Z21	X22	Y22	Z22	X23	Y23	Z23	X24	Y24	Z24	X25	Y25	Z25	X26	Y26	Z26	X27	Y27	Z27
1	0.00000000	-1521.912109	1447.362305	587.605469	-1521.001953	1477.971924	218.489594	-1562.431274	1527.500610	400.482239	-1412.326782	1404.169189	392.783875	-1490.283081	1123.825684	690.654602	-1568.623047	1168.209839	88.716675	-1383.168823	896.626678	640.977356	-1440.685974	940.760925	119.575562	-1452.327026	924.746826	507.296143	-1460.903076	926.079834	216.601608	-1653.602783	955.333252	423.048340	-1658.950806	946.823975	315.015320	-1656.276794	951.078613	369.031830	-1654.898438	1201.722412	374.425232	-1367.956909	1243.891846	393.201111	-1472.163574	728.937866	585.538208	-1427.648071	468.774628	507.135651	-1496.929565	291.435242	567.274475	-1538.022827	72.789391	468.037476	-1593.134644	63.561317	416.789185	-1394.653809	43.433559	470.809418	-1525.152344	662.921997	151.588791	-1528.228271	440.404480	235.576202	-1613.068481	321.853699	180.761612	-1732.588745	87.864059	271.777771	-1782.523071	83.977112	325.187927	-1598.910400	37.496914	271.348389
2	0.01000000	-1519.840820	1446.908936	589.261169	-1518.593750	1478.968018	220.615723	-1560.012817	1527.548706	402.438141	-1409.997803	1404.168091	394.517609	-1488.580688	1123.289185	691.728760	-1565.959106	1169.821777	89.369598	-1382.071472	895.754059	642.270111	-1436.303711	943.374573	120.271759	-1450.283813	924.599976	507.224335	-1459.369629	926.201111	216.435638	-1651.751465	955.557007	423.160278	-1657.158691	946.983459	315.051117	-1654.455078	951.270233	369.105698	-1652.826172	1201.943848	375.280151	-1365.786011	1243.814453	394.399658	-1470.197144	728.950867	585.213257	-1426.841675	468.588196	506.839020	-1496.399292	291.429077	567.025146	-1537.889160	72.786331	467.921539	-1593.149414	63.601971	416.726654	-1394.630005	43.472916	470.742401	-1521.506226	662.993835	150.886703	-1522.214478	440.234680	234.190750	-1608.606323	322.757599	180.029160	-1731.205688	90.567039	271.467804	-1780.993408	87.596107	324.991547	-1598.367432	37.369186	271.120087
3	0.02000000	-1517.771484	1446.466675	590.896851	-1516.232544	1480.030884	222.748642	-1557.585083	1527.617920	404.383362	-1407.668335	1404.194214	396.224762	-1486.936646	1122.781860	692.783569	-1563.468628	1171.516479	90.048759	-1381.027527	894.904968	643.550262	-1432.115784	946.066254	120.941940	-1448.280396	924.507568	507.116302	-1457.882324	926.354797	216.272629	-1649.934570	955.839905	423.264893	-1655.403564	947.182739	315.076111	-1652.669067	951.511322	369.170502	-1650.762207	1202.195190	376.118042	-1363.620239	1243.755615	395.549652	-1468.318115	729.046570	584.915466	-1426.252319	468.443848	506.583862	-1496.028809	291.432251	566.824707	-1537.786987	72.774261	467.824799	-1593.127197	63.611115	416.678802	-1394.616089	43.506691	470.687958	-1517.651855	663.132141	150.041733	-1515.693970	440.152069	232.536469	-1603.674316	323.854675	179.058685	-1729.513550	93.624474	270.977325	-1779.148926	91.694435	324.609039	-1597.756104	37.233925	270.879181
4	0.03000000	-1515.699341	1446.032227	592.505066	-1513.909546	1481.154663	224.879639	-1555.143311	1527.705078	406.310608	-1405.334229	1404.242920	397.898499	-1485.351685	1122.301025	693.815186	-1561.151733	1173.287964	90.750145	-1380.031616	894.080017	644.816528	-1428.129761	948.824921	121.585445	-1446.322266	924.466492	506.977448	-1456.446167	926.537659	216.117905	-1648.156250	956.179138	423.366943	-1653.691406	947.420654	315.096802	-1650.923828	951.799896	369.231873	-1648.705811	1202.474731	376.935730	-1361.457275	1243.709106	396.644745	-1466.558960	729.219604	584.659851	-1425.872681	468.340424	506.378143	-1495.812378	291.439514	566.681458	-1537.717163	72.752571	467.749207	-1593.048340	63.581852	416.644897	-1394.612427	43.532944	470.647217	-1513.597412	663.355469	149.043839	-1508.668213	440.185150	230.596207	-1598.246338	325.164093	177.829102	-1727.465210	97.068970	270.290405	-1776.931030	96.318291	324.023285	-1597.074829	37.111870	270.640442
5	0.04000000	-1513.618408	1445.602051	594.078064	-1511.614624	1482.331177	226.998856	-1552.682495	1527.806763	408.212067	-1402.991455	1404.308350	399.531464	-1483.824585	1121.843872	694.820496	-1559.006104	1175.128052	91.468582	-1379.078247	893.278748	646.067841	-1424.351379	951.636902	122.201168	-1444.415039	924.471985	506.813354	-1455.066040	926.745422	215.975906	-1646.420288	956.570068	423.471008	-1652.028320	947.695007	315.119446	-1649.224304	952.132538	369.295227	-1646.656372	1202.780640	377.730225	-1359.295776	1243.667480	397.678772	-1464.948853	729.461365	584.459717	-1425.688599	468.275269	506.227661	-1495.739014	291.445892	566.600586	-1537.679443	72.721107	467.695618	-1592.894043	63.507744	416.623871	-1394.619019	43.550297	470.620758	-1509.354980	663.685181	147.884613	-1501.150146	440.363800	228.360229	-1592.302002	326.699005	176.324814	-1725.015747	100.926300	269.393402	-1774.284302	101.504402	323.217010	-1596.321289	37.032440	270.419128
6	0.05000000	-1511.522095	1445.172974	595.607666	-1509.336670	1483.550659	229.095474	-1550.197510	1527.918945	410.079498	-1400.635620	1404.383911	401.115936	-1482.351807	1121.406982	695.796753	-1557.026245	1177.026489	92.197739	-1378.161926	892.499664	647.303040	-1420.783936	954.486145	122.787567	-1442.563721	924.517578	506.629669	-1453.746216	926.972717	215.850037	-1644.730591	957.006592	423.581268	-1650.420166	948.002686	315.149811	-1647.575378	952.504639	369.365540	-1644.613403	1203.110352	378.498871	-1357.134033	1243.622925	398.646057	-1463.512329	729.760315	584.325806	-1425.679321	468.244354	506.135498	-1495.792236	291.446838	566.583923	-1537.671753	72.680237	467.663696	-1592.647705	63.383362	416.614410	-1394.635620	43.557957	470.608673	-1504.941528	664.144714	146.559433	-1493.164551	440.717712	225.828110	-1585.828613	328.464691	174.537689	-1722.125610	105.211632	268.276001	-1771.161377	107.274689	322.174103	-1595.490356	37.033627	270.228363
